<svg width="15" height="13" viewBox="0 0 15 13" fill="none" xmlns="http://www.w3.org/2000/svg">
<path d="M14.165 8.94673V10.9467C14.1657 11.1324 14.1277 11.3162 14.0533 11.4863C13.979 11.6564 13.8699 11.8091 13.733 11.9346C13.5962 12.0602 13.4347 12.1557 13.2588 12.2152C13.0829 12.2747 12.8966 12.2968 12.7117 12.2801C10.6602 12.0572 8.68966 11.3562 6.95833 10.2334C5.34755 9.20984 3.98189 7.84418 2.95833 6.2334C1.83165 4.4942 1.13049 2.51406 0.911661 0.453398C0.895001 0.269043 0.916911 0.0832378 0.975995 -0.0921861C1.03508 -0.26761 1.13004 -0.428809 1.25484 -0.565521C1.37964 -0.702233 1.53153 -0.811462 1.70086 -0.886254C1.87018 -0.961046 2.05322 -0.999761 2.23833 -0.999935H4.23833C4.56187 -1.00312 4.87552 -0.88855 5.12084 -0.67758C5.36615 -0.466611 5.52638 -0.173638 5.57166 0.146731C5.65608 0.786776 5.81263 1.41522 6.03833 2.02006C6.12802 2.25868 6.14744 2.51801 6.09427 2.76732C6.0411 3.01663 5.91757 3.24547 5.73833 3.42673L4.89166 4.2734C5.8407 5.94243 7.22263 7.32436 8.89166 8.2734L9.73833 7.42673C9.91959 7.24749 10.1484 7.12396 10.3977 7.07079C10.6471 7.01762 10.9064 7.03704 11.145 7.12673C11.7498 7.35243 12.3783 7.50898 13.0183 7.5934C13.3422 7.63908 13.6379 7.8022 13.8493 8.05173C14.0608 8.30125 14.1731 8.61978 14.165 8.94673Z" fill="white"/>
</svg>
