<svg width="43" height="45" viewBox="0 0 43 45" fill="none" xmlns="http://www.w3.org/2000/svg">
<g clip-path="url(#clip0_2_659)">
<g clip-path="url(#clip1_2_659)">
<g clip-path="url(#clip2_2_659)">
<mask id="mask0_2_659" style="mask-type:luminance" maskUnits="userSpaceOnUse" x="0" y="0" width="43" height="44">
<path d="M43 0.606445H0V43.6064H43V0.606445Z" fill="white"/>
</mask>
<g mask="url(#mask0_2_659)">
<path d="M24.6387 38.7481C24.6174 38.7166 24.5953 38.6856 24.5722 38.6548L19.6992 32.1687C19.0455 31.2986 18.1107 30.7161 17.0493 30.512C16.9785 30.4984 16.9072 30.4865 16.8353 30.4763C15.8938 30.3422 14.9559 30.5159 14.1371 30.9661C13.9563 31.0655 13.7811 31.1779 13.6132 31.304L12.2621 32.3187C9.2894 28.6796 7.31738 24.3543 6.51985 19.7247L8.19622 19.3712C9.33222 19.1316 10.3069 18.4642 10.9409 17.4916C11.2528 17.0129 11.4638 16.4887 11.5691 15.9441C11.5842 15.8663 11.597 15.7881 11.6078 15.7095C11.6364 15.5001 11.6495 15.2883 11.6469 15.0754C11.6435 14.7917 11.6121 14.5061 11.5522 14.2222L9.87768 6.28476C9.86985 6.24753 9.86102 6.21072 9.85144 6.17416C9.85011 6.16916 9.84853 6.16425 9.84711 6.15925C9.83853 6.12752 9.82945 6.09596 9.81954 6.06473L9.81845 6.06148C9.66276 5.57503 9.34746 5.16003 8.91354 4.87737C8.45163 4.57647 7.90658 4.45913 7.36587 4.541C7.35987 4.54191 7.35395 4.5425 7.34796 4.54341C7.32671 4.54683 7.30556 4.55116 7.28431 4.55515C7.26832 4.55815 7.25241 4.56057 7.23641 4.56398C7.13629 4.58505 7.03699 4.60837 6.93803 4.63269C6.91878 4.63744 6.89954 4.64218 6.8803 4.6471C6.67537 4.6989 6.47253 4.75728 6.27227 4.82282C6.26736 4.82441 6.26244 4.82607 6.25753 4.82765C6.12791 4.87021 5.99979 4.9161 5.87284 4.96415C5.85601 4.97048 5.83952 4.97764 5.82277 4.98414C5.71198 5.02695 5.60177 5.07134 5.49273 5.11847C5.47524 5.12605 5.45799 5.13421 5.44058 5.14188C5.33179 5.18968 5.22375 5.23915 5.11687 5.29128C5.10263 5.2982 5.08846 5.30553 5.07422 5.31261C4.96351 5.36732 4.85363 5.42395 4.74518 5.48317C4.74134 5.48525 4.73734 5.48716 4.73343 5.48925L4.7291 5.49199C3.45007 6.19223 2.35048 7.19461 1.52262 8.44176C0.192286 10.446 -0.288702 12.8504 0.168294 15.2119L0.32257 16.0093C0.665443 17.7812 0.908436 19.2405 1.0872 20.6018C1.40175 22.9972 1.9987 25.3181 2.86146 27.4996C3.55528 29.254 4.43029 30.9403 5.46224 32.5114C6.12633 33.5226 6.86739 34.5039 7.66476 35.428C8.79267 36.7351 9.68575 37.8159 10.4752 38.8294L11.4582 40.0914C12.9357 41.9882 15.0623 43.2078 17.446 43.5253C17.8537 43.5796 18.261 43.6065 18.6657 43.6065C19.7496 43.6065 20.8148 43.4119 21.8209 43.0368C21.8256 43.0351 21.8304 43.034 21.8351 43.0322C21.8492 43.027 21.8631 43.021 21.8773 43.0156C21.9412 42.9913 22.0048 42.9662 22.068 42.9405C22.0931 42.9302 22.1185 42.9202 22.1435 42.9097C22.2294 42.8738 22.315 42.837 22.3998 42.7988C22.4195 42.7899 22.4393 42.7812 22.4589 42.7721C22.531 42.739 22.6023 42.7043 22.6733 42.6694C22.7106 42.651 22.7477 42.6325 22.7848 42.6137C22.8431 42.5839 22.9011 42.5534 22.9587 42.5225C23.0102 42.4948 23.0612 42.4665 23.1121 42.4378C23.1577 42.4122 23.2033 42.3864 23.2485 42.36C23.314 42.3217 23.3787 42.2821 23.4433 42.2421C23.4756 42.2221 23.5082 42.2025 23.5403 42.1821C23.6232 42.1294 23.705 42.075 23.7862 42.0195C23.8015 42.009 23.8172 41.999 23.8325 41.9885C23.9288 41.9217 24.0241 41.8536 24.1177 41.7833C24.1197 41.7818 24.125 41.7778 24.1277 41.7758L24.1287 41.7752C24.4665 41.5215 24.7117 41.1895 24.8581 40.8233C24.8847 40.7567 24.9081 40.689 24.9281 40.6204C25.1084 40.003 25.021 39.3148 24.6387 38.7481ZM6.85439 6.38586L6.85889 6.38445C6.9137 6.36696 6.96893 6.35013 7.02441 6.33389C7.04007 6.32931 7.05582 6.32507 7.07148 6.32057C7.11529 6.30808 7.15919 6.29567 7.20334 6.28392C7.23392 6.27585 7.26457 6.26827 7.29523 6.26052C7.32638 6.25269 7.35745 6.24453 7.38886 6.23704C7.45242 6.22188 7.51623 6.20747 7.58029 6.1939C7.59953 6.18982 7.61869 6.18682 7.63777 6.18482C7.64093 6.18448 7.64418 6.18449 7.64735 6.18424C7.66359 6.18282 7.67983 6.18174 7.69599 6.18174H7.69783C7.76147 6.18199 7.82345 6.19306 7.88176 6.21347L7.88717 6.2153C7.91525 6.22546 7.9424 6.23779 7.96848 6.25219C7.97039 6.25328 7.97231 6.25444 7.97431 6.25561C7.99771 6.26893 8.01971 6.28442 8.04103 6.30083C8.04478 6.30374 8.04878 6.30641 8.05244 6.30941C8.07469 6.32756 8.09585 6.34713 8.11517 6.36854L8.11875 6.37237C8.13833 6.39444 8.15607 6.41826 8.17207 6.44349C8.17373 6.44616 8.1754 6.44882 8.17706 6.45157C8.19239 6.47656 8.20597 6.50287 8.2173 6.53052C8.21847 6.53335 8.21938 6.53635 8.22055 6.53918C8.23179 6.56775 8.24121 6.5974 8.24779 6.62846L9.92233 14.5659C9.93175 14.6107 9.93999 14.6554 9.94707 14.7002C9.94824 14.7072 9.94891 14.7142 9.94991 14.7213C9.95565 14.7596 9.96107 14.7979 9.96515 14.8362L9.96548 14.8401C9.97231 14.905 9.97648 14.9696 9.97856 15.034C9.97865 15.0372 9.97889 15.0405 9.97898 15.0438C9.98081 15.1033 9.97981 15.1626 9.97764 15.2218C9.97656 15.2508 9.97431 15.2796 9.97223 15.3085C9.97023 15.337 9.96798 15.3657 9.96507 15.3942C9.96132 15.4301 9.95707 15.4658 9.9519 15.5013C9.94941 15.5189 9.94632 15.5364 9.94341 15.5541C9.911 15.7494 9.85777 15.9393 9.78438 16.1205L9.78213 16.126C9.7065 16.3114 9.6102 16.4874 9.49599 16.6511C9.48791 16.6627 9.47966 16.6741 9.47142 16.6855C9.39536 16.7911 9.31131 16.8908 9.22051 16.9845C9.19877 17.0068 9.17694 17.029 9.15453 17.0504C9.13387 17.0703 9.11305 17.09 9.09173 17.1093C9.04591 17.1504 8.99951 17.1908 8.95111 17.2286C8.94645 17.2323 8.9417 17.2359 8.93703 17.2396C8.89313 17.2736 8.8479 17.3061 8.80175 17.3374C8.79425 17.3425 8.787 17.3477 8.77951 17.3527C8.72769 17.3871 8.67463 17.4201 8.62015 17.451C8.61149 17.4559 8.60282 17.4608 8.59416 17.4656C8.57583 17.4756 8.55717 17.4851 8.5386 17.4949C6.79108 12.3261 6.19139 8.1616 6.02195 6.70908C6.29035 6.58574 6.568 6.47739 6.85439 6.38586ZM12.7727 39.0681L11.7896 37.806C10.9826 36.7701 10.0728 35.6687 8.9262 34.3401C8.17606 33.4709 7.47924 32.5481 6.85481 31.5973C5.88508 30.1208 5.06281 28.5362 4.41072 26.8873C3.59819 24.8327 3.03573 22.645 2.739 20.3849C2.55574 18.9894 2.30767 17.4986 1.95821 15.6928L1.80394 14.8955C1.26539 12.1122 2.38214 9.35895 4.46295 7.67707C4.72668 9.60221 5.3866 13.3543 6.92911 17.9361L5.40201 18.2581C4.97267 18.3487 4.6872 18.7567 4.74934 19.1909C5.53546 24.6838 7.87043 29.8056 11.5019 34.003C11.7882 34.334 12.2822 34.3868 12.6322 34.124L13.809 33.2404C16.2689 37.3598 18.6732 40.3033 20.0013 41.8057C17.3532 42.2833 14.5238 41.3161 12.7727 39.0681ZM23.1237 40.4467C23.025 40.5208 22.9251 40.5918 22.8239 40.6601C22.8207 40.6623 22.8175 40.6647 22.8142 40.6669C22.4732 40.8966 22.1177 41.0926 21.7529 41.2587C20.7221 40.1372 17.9658 36.967 15.19 32.3048C15.193 32.3037 15.1961 32.3027 15.1991 32.3013C15.2453 32.2822 15.2919 32.2646 15.339 32.2481C15.3531 32.2432 15.3673 32.2385 15.3815 32.2338C15.4221 32.2203 15.463 32.2078 15.5043 32.1963C15.5156 32.1932 15.5268 32.1897 15.5382 32.1867C15.5903 32.1728 15.6428 32.1606 15.6957 32.15C15.7044 32.1483 15.7132 32.1469 15.7219 32.1453C15.7667 32.1368 15.8116 32.1295 15.8569 32.1234C15.871 32.1214 15.8851 32.1196 15.8993 32.1179C15.9463 32.1122 15.9936 32.1077 16.0411 32.1045C16.048 32.1041 16.0548 32.1033 16.0617 32.1029C16.1159 32.0997 16.1704 32.0985 16.2251 32.0985C16.2379 32.0985 16.2507 32.099 16.2636 32.0993C16.3064 32.1 16.3493 32.1018 16.3922 32.1045C16.4072 32.1055 16.4221 32.1064 16.4371 32.1076C16.4916 32.112 16.5462 32.1175 16.6008 32.1253C16.6452 32.1316 16.6891 32.1389 16.7328 32.1473C16.7737 32.1552 16.8144 32.164 16.8546 32.1737C17.4588 32.3188 17.9891 32.6661 18.367 33.1691L23.24 39.6551C23.4266 39.9033 23.3762 40.257 23.1237 40.4467Z" fill="#E12E0D"/>
<path d="M37.6987 0.606445H19.3742C16.4509 0.606445 14.0728 2.92968 14.0728 5.78525V22.9264C14.0728 24.0151 14.7076 24.9611 15.7296 25.3953C16.092 25.5492 16.4692 25.6247 16.8417 25.6247C17.5199 25.6247 18.1821 25.3749 18.7082 24.8957L20.476 23.2859C22.0789 21.8261 24.1686 21.0221 26.3601 21.0221H33.5829C34.0515 21.0221 34.4314 20.6511 34.4314 20.1933C34.4314 19.7357 34.0515 19.3645 33.5829 19.3645H26.3601C23.7377 19.3645 21.2371 20.3265 19.319 22.0734L17.5513 23.6833C17.2332 23.9729 16.8052 24.0446 16.4064 23.8753C16.0077 23.7058 15.7696 23.3511 15.7696 22.9263V5.78525C15.7696 3.84368 17.3866 2.26406 19.3742 2.26406H37.6987C39.6863 2.26406 41.3033 3.84368 41.3033 5.78525V15.8433C41.3033 16.444 41.1461 17.0365 40.8485 17.5569C40.6339 17.9324 40.3536 18.2635 40.0156 18.5409C39.6568 18.8353 39.6103 19.3581 39.9116 19.7086C40.2129 20.0591 40.748 20.1046 41.107 19.8102C41.6031 19.4031 42.0146 18.9169 42.3299 18.3652C42.7683 17.5983 43 16.7263 43 15.8433V5.78525C43 2.92968 40.6219 0.606445 37.6987 0.606445Z" fill="#E12E0D"/>
<path d="M32.3172 9.02265C32.5254 8.5591 32.6418 8.04748 32.6418 7.50957C32.6418 5.42743 30.9096 3.7334 28.7804 3.7334C26.6512 3.7334 24.9191 5.42743 24.9191 7.50957C24.9191 7.97912 25.0079 8.42861 25.1688 8.84376C23.2523 9.57848 21.8909 11.4037 21.8909 13.5353V16.2982C21.8909 16.9395 22.3304 17.5135 22.9599 17.6941L23.7111 17.9095C25.288 18.3618 26.9104 18.5879 28.5328 18.5879C30.1462 18.5879 31.7595 18.3643 33.3284 17.9171L34.1106 17.694C34.7414 17.5142 35.1818 16.9398 35.1818 16.2974V13.5352C35.1818 11.5603 34.0132 9.8481 32.3172 9.02265ZM28.7804 5.37689C29.983 5.37689 30.9613 6.33357 30.9613 7.50965C30.9613 7.88314 30.8623 8.23435 30.6892 8.53996C30.317 9.1967 29.6011 9.64233 28.7805 9.64233C27.9443 9.64233 27.2168 9.17944 26.8511 8.50207C26.6909 8.20542 26.5996 7.86785 26.5996 7.50965C26.5996 6.33357 27.5779 5.37689 28.7804 5.37689ZM33.5013 16.1558L32.858 16.3392C30.02 17.1483 27.0207 17.146 24.184 16.3325L23.5715 16.1568V13.5353C23.5715 11.9698 24.661 10.6491 26.1372 10.2586C26.8286 10.8948 27.7585 11.2858 28.7804 11.2858C29.739 11.2858 30.6165 10.9417 31.2923 10.3741C32.5838 10.869 33.5013 12.0989 33.5013 13.5353V16.1558Z" fill="#E12E0D"/>
<path d="M38.2943 19.9993C38.2841 19.9492 38.2685 19.8999 38.2489 19.853C38.2294 19.8053 38.2059 19.7599 38.177 19.7178C38.1488 19.6747 38.116 19.6348 38.08 19.5989C38.0441 19.5629 38.0042 19.5301 37.9612 19.5019C37.919 19.4738 37.8736 19.4495 37.826 19.43C37.779 19.4104 37.7298 19.3956 37.6798 19.3855C37.5789 19.365 37.4757 19.365 37.3748 19.3855C37.3248 19.3956 37.2756 19.4104 37.2279 19.43C37.181 19.4495 37.1356 19.4738 37.0934 19.5019C37.0504 19.5301 37.0105 19.5629 36.9746 19.5989C36.9386 19.6349 36.9058 19.6748 36.8776 19.7178C36.8495 19.7599 36.8252 19.8053 36.8057 19.853C36.7861 19.8999 36.7705 19.9492 36.7611 19.9993C36.751 20.0493 36.7455 20.1009 36.7455 20.1518C36.7455 20.2025 36.751 20.2542 36.7611 20.3051C36.7713 20.3543 36.7861 20.4036 36.8057 20.4513C36.8252 20.4982 36.8494 20.5436 36.8776 20.5858C36.9058 20.6288 36.9386 20.6687 36.9746 20.7046C37.0105 20.7406 37.0504 20.7735 37.0934 20.8024C37.1356 20.8306 37.181 20.8548 37.2279 20.8743C37.2756 20.8939 37.3248 20.9088 37.3748 20.9189C37.4249 20.9291 37.4765 20.9338 37.5273 20.9338C37.5781 20.9338 37.6297 20.929 37.6798 20.9189C37.7298 20.9088 37.779 20.8939 37.826 20.8743C37.8736 20.8548 37.919 20.8306 37.9612 20.8024C38.0042 20.7735 38.0441 20.7406 38.08 20.7046C38.116 20.6687 38.1488 20.6288 38.177 20.5858C38.2059 20.5436 38.2294 20.4982 38.2489 20.4513C38.2685 20.4036 38.2841 20.3543 38.2943 20.3051C38.3044 20.2542 38.3091 20.2025 38.3091 20.1518C38.3091 20.1009 38.3044 20.0492 38.2943 19.9993Z" fill="#E12E0D"/>
</g>
</g>
</g>
</g>
<defs>
<clipPath id="clip0_2_659">
<rect width="43" height="44" fill="white" transform="translate(0 0.330078)"/>
</clipPath>
<clipPath id="clip1_2_659">
<rect width="43" height="44" fill="white" transform="translate(0 0.330078)"/>
</clipPath>
<clipPath id="clip2_2_659">
<rect width="43" height="44" fill="white" transform="translate(0 0.330078)"/>
</clipPath>
</defs>
</svg>
