<svg width="21" height="21" viewBox="0 0 21 21" fill="none" xmlns="http://www.w3.org/2000/svg">
<g clip-path="url(#clip0_2_677)">
<path d="M17.4813 9.3877C17.4813 14.8564 10.45 19.5439 10.45 19.5439C10.45 19.5439 3.41876 14.8564 3.41876 9.3877C3.41876 7.52288 4.15955 5.73446 5.47817 4.41585C6.79678 3.09723 8.5852 2.35645 10.45 2.35645C12.3148 2.35645 14.1033 3.09723 15.4219 4.41585C16.7404 5.73446 17.4813 7.52288 17.4813 9.3877Z" stroke="black" stroke-width="2.5" stroke-linecap="round" stroke-linejoin="round"/>
<path d="M10.45 11.7314C11.7444 11.7314 12.7938 10.6821 12.7938 9.3877C12.7938 8.09326 11.7444 7.04395 10.45 7.04395C9.15557 7.04395 8.10626 8.09326 8.10626 9.3877C8.10626 10.6821 9.15557 11.7314 10.45 11.7314Z" stroke="black" stroke-width="2.5" stroke-linecap="round" stroke-linejoin="round"/>
</g>
<defs>
<clipPath id="clip0_2_677">
<rect width="20" height="20" fill="white" transform="translate(0.450012 0.950195)"/>
</clipPath>
</defs>
</svg>
