<svg width="146" height="49" viewBox="0 0 146 49" fill="none" xmlns="http://www.w3.org/2000/svg">
<g clip-path="url(#clip0_2_1235)">
<path d="M1.82397 13.1H12.864C15.36 13.1 17.5573 13.5587 19.456 14.476C21.376 15.372 22.8587 16.6627 23.904 18.348C24.9707 20.0333 25.504 22.0173 25.504 24.3C25.504 26.5827 24.9707 28.5667 23.904 30.252C22.8587 31.9373 21.376 33.2387 19.456 34.156C17.5573 35.052 15.36 35.5 12.864 35.5H1.82397V13.1ZM12.544 29.612C14.1653 29.612 15.456 29.1533 16.416 28.236C17.3973 27.2973 17.888 25.9853 17.888 24.3C17.888 22.6147 17.3973 21.3133 16.416 20.396C15.456 19.4573 14.1653 18.988 12.544 18.988H9.37598V29.612H12.544ZM47.2615 35.5L47.1975 25.292L42.3335 33.484H39.0055L34.1415 25.644V35.5H27.2615V13.1H33.4695L40.7655 25.036L47.8695 13.1H54.0775L54.1415 35.5H47.2615ZM72.0568 31.596H63.5448L62.0408 35.5H54.3607L64.1528 13.1H71.5768L81.3688 35.5H73.5608L72.0568 31.596ZM69.9768 26.156L67.8008 20.524L65.6248 26.156H69.9768Z" fill="white"/>
<path d="M101.988 14.994C101.988 15.3697 101.928 15.7115 101.809 16.0195C101.69 16.3275 101.522 16.5912 101.305 16.8105C101.088 17.0298 100.827 17.2002 100.521 17.3215C100.218 17.4405 99.8817 17.5 99.513 17.5H97.6405V12.4845H99.513C99.8817 12.4845 100.218 12.5452 100.521 12.6665C100.827 12.7855 101.088 12.9558 101.305 13.1775C101.522 13.3968 101.69 13.6605 101.809 13.9685C101.928 14.2765 101.988 14.6183 101.988 14.994ZM101.291 14.994C101.291 14.686 101.249 14.4107 101.165 14.168C101.081 13.9253 100.962 13.72 100.808 13.552C100.654 13.384 100.467 13.2557 100.248 13.167C100.029 13.0783 99.7837 13.034 99.513 13.034H98.3195V16.9505H99.513C99.7837 16.9505 100.029 16.9062 100.248 16.8175C100.467 16.7288 100.654 16.6017 100.808 16.436C100.962 16.268 101.081 16.0627 101.165 15.82C101.249 15.5773 101.291 15.302 101.291 14.994ZM104.645 17.5H103.966V12.4845H104.645V17.5ZM111.002 15.0885V17.0135C110.75 17.1955 110.48 17.332 110.193 17.423C109.908 17.5117 109.596 17.556 109.255 17.556C108.851 17.556 108.487 17.4942 108.163 17.3705C107.839 17.2445 107.561 17.0695 107.33 16.8455C107.101 16.6192 106.925 16.3485 106.802 16.0335C106.678 15.7185 106.616 15.372 106.616 14.994C106.616 14.6113 106.676 14.2625 106.795 13.9475C106.916 13.6325 107.087 13.363 107.309 13.139C107.531 12.9127 107.8 12.7377 108.118 12.614C108.435 12.4903 108.79 12.4285 109.182 12.4285C109.38 12.4285 109.564 12.4437 109.735 12.474C109.905 12.502 110.062 12.544 110.207 12.6C110.352 12.6537 110.486 12.7202 110.61 12.7995C110.733 12.8765 110.849 12.964 110.956 13.062L110.764 13.37C110.733 13.4167 110.694 13.447 110.645 13.461C110.598 13.4727 110.545 13.461 110.487 13.426C110.431 13.3933 110.367 13.3537 110.295 13.307C110.222 13.2603 110.134 13.216 110.029 13.174C109.926 13.1297 109.803 13.0923 109.661 13.062C109.521 13.0317 109.354 13.0165 109.161 13.0165C108.878 13.0165 108.623 13.0632 108.394 13.1565C108.165 13.2475 107.971 13.3793 107.81 13.552C107.649 13.7223 107.525 13.93 107.439 14.175C107.352 14.4177 107.309 14.6907 107.309 14.994C107.309 15.309 107.353 15.5913 107.442 15.841C107.533 16.0883 107.661 16.2995 107.827 16.4745C107.995 16.6472 108.198 16.779 108.436 16.87C108.674 16.961 108.941 17.0065 109.238 17.0065C109.471 17.0065 109.677 16.9808 109.857 16.9295C110.039 16.8758 110.216 16.8023 110.389 16.709V15.6065H109.609C109.564 15.6065 109.528 15.5937 109.5 15.568C109.474 15.5423 109.462 15.5108 109.462 15.4735V15.0885H111.002ZM113.72 17.5H113.041V12.4845H113.72V17.5ZM119.394 13.055H117.77V17.5H117.095V13.055H115.467V12.4845H119.394V13.055ZM123.31 15.638L122.522 13.5975C122.499 13.5368 122.475 13.4668 122.449 13.3875C122.423 13.3058 122.399 13.2195 122.375 13.1285C122.326 13.3175 122.276 13.475 122.225 13.601L121.437 15.638H123.31ZM124.724 17.5H124.199C124.138 17.5 124.089 17.4848 124.052 17.4545C124.015 17.4242 123.987 17.3857 123.968 17.339L123.499 16.128H121.248L120.779 17.339C120.765 17.381 120.739 17.4183 120.699 17.451C120.659 17.4837 120.61 17.5 120.552 17.5H120.027L122.032 12.4845H122.718L124.724 17.5ZM129.229 16.9295V17.5H126.384V12.4845H127.059V16.9295H129.229ZM102.859 21.4845V26.5H102.264V22.8145C102.264 22.7655 102.265 22.713 102.268 22.657C102.272 22.601 102.277 22.5438 102.282 22.4855L100.56 25.6215C100.506 25.7265 100.424 25.779 100.315 25.779H100.217C100.107 25.779 100.025 25.7265 99.9715 25.6215L98.2145 22.4715C98.2285 22.5952 98.2355 22.7095 98.2355 22.8145V26.5H97.6405V21.4845H98.141C98.2017 21.4845 98.2483 21.4903 98.281 21.502C98.3137 21.5137 98.3452 21.5463 98.3755 21.6L100.108 24.687C100.136 24.743 100.163 24.8013 100.189 24.862C100.217 24.9227 100.242 24.9845 100.266 25.0475C100.289 24.9845 100.313 24.9227 100.339 24.862C100.365 24.799 100.393 24.7395 100.423 24.6835L102.124 21.6C102.152 21.5463 102.182 21.5137 102.215 21.502C102.25 21.4903 102.298 21.4845 102.359 21.4845H102.859ZM107.805 24.638L107.017 22.5975C106.994 22.5368 106.97 22.4668 106.944 22.3875C106.918 22.3058 106.894 22.2195 106.87 22.1285C106.821 22.3175 106.771 22.475 106.72 22.601L105.932 24.638H107.805ZM109.219 26.5H108.694C108.633 26.5 108.584 26.4848 108.547 26.4545C108.51 26.4242 108.482 26.3857 108.463 26.339L107.994 25.128H105.743L105.274 26.339C105.26 26.381 105.234 26.4183 105.194 26.451C105.154 26.4837 105.105 26.5 105.047 26.5H104.522L106.527 21.4845H107.213L109.219 26.5ZM112.268 23.9135C112.464 23.9135 112.637 23.8902 112.786 23.8435C112.938 23.7945 113.064 23.7268 113.164 23.6405C113.267 23.5518 113.344 23.4468 113.395 23.3255C113.447 23.2042 113.472 23.07 113.472 22.923C113.472 22.6243 113.374 22.3992 113.178 22.2475C112.982 22.0958 112.688 22.02 112.296 22.02H111.554V23.9135H112.268ZM114.585 26.5H113.983C113.86 26.5 113.769 26.4522 113.71 26.3565L112.408 24.5645C112.369 24.5085 112.325 24.4688 112.279 24.4455C112.234 24.4198 112.164 24.407 112.069 24.407H111.554V26.5H110.879V21.4845H112.296C112.614 21.4845 112.888 21.5172 113.119 21.5825C113.35 21.6455 113.54 21.7377 113.689 21.859C113.841 21.9803 113.953 22.1273 114.025 22.3C114.098 22.4703 114.134 22.6617 114.134 22.874C114.134 23.0513 114.106 23.217 114.05 23.371C113.994 23.525 113.912 23.6638 113.805 23.7875C113.7 23.9088 113.57 24.0127 113.416 24.099C113.265 24.1853 113.092 24.2507 112.898 24.295C112.985 24.344 113.059 24.4152 113.122 24.5085L114.585 26.5ZM116.943 23.6825H117.198C117.287 23.6825 117.358 23.672 117.412 23.651C117.466 23.6277 117.515 23.5892 117.559 23.5355L119.228 21.6455C119.275 21.5848 119.324 21.5428 119.375 21.5195C119.427 21.4962 119.49 21.4845 119.564 21.4845H120.138L118.227 23.644C118.181 23.7 118.135 23.7467 118.091 23.784C118.049 23.819 118.003 23.8482 117.954 23.8715C118.017 23.8925 118.075 23.924 118.126 23.966C118.177 24.0057 118.227 24.0582 118.276 24.1235L120.271 26.5H119.683C119.639 26.5 119.601 26.4977 119.568 26.493C119.538 26.486 119.511 26.4767 119.487 26.465C119.464 26.451 119.443 26.4358 119.424 26.4195C119.408 26.4008 119.392 26.3798 119.375 26.3565L117.646 24.365C117.6 24.3067 117.55 24.2658 117.496 24.2425C117.442 24.2168 117.361 24.204 117.251 24.204H116.943V26.5H116.267V21.4845H116.943V23.6825ZM124.996 25.947L124.993 26.5H121.902V21.4845H124.993V22.0375H122.581V23.7035H124.534V24.2355H122.581V25.947H124.996ZM130.334 22.055H128.71V26.5H128.034V22.055H126.407V21.4845H130.334V22.055ZM132.757 26.5H132.078V21.4845H132.757V26.5ZM139.103 21.4845V26.5H138.764C138.71 26.5 138.665 26.4907 138.627 26.472C138.592 26.4533 138.557 26.4218 138.522 26.3775L135.621 22.5975C135.626 22.6558 135.629 22.713 135.631 22.769C135.634 22.825 135.635 22.8775 135.635 22.9265V26.5H135.04V21.4845H135.39C135.42 21.4845 135.446 21.4868 135.467 21.4915C135.488 21.4938 135.507 21.4997 135.523 21.509C135.539 21.516 135.556 21.5277 135.572 21.544C135.588 21.558 135.606 21.5767 135.624 21.6L138.526 25.3765C138.521 25.3158 138.517 25.2575 138.512 25.2015C138.51 25.1432 138.508 25.0883 138.508 25.037V21.4845H139.103ZM145.46 24.0885V26.0135C145.208 26.1955 144.938 26.332 144.651 26.423C144.366 26.5117 144.054 26.556 143.713 26.556C143.309 26.556 142.945 26.4942 142.621 26.3705C142.297 26.2445 142.019 26.0695 141.788 25.8455C141.559 25.6192 141.383 25.3485 141.26 25.0335C141.136 24.7185 141.074 24.372 141.074 23.994C141.074 23.6113 141.134 23.2625 141.253 22.9475C141.374 22.6325 141.545 22.363 141.767 22.139C141.989 21.9127 142.258 21.7377 142.576 21.614C142.893 21.4903 143.248 21.4285 143.64 21.4285C143.838 21.4285 144.022 21.4437 144.193 21.474C144.363 21.502 144.52 21.544 144.665 21.6C144.81 21.6537 144.944 21.7202 145.068 21.7995C145.191 21.8765 145.307 21.964 145.414 22.062L145.222 22.37C145.191 22.4167 145.152 22.447 145.103 22.461C145.056 22.4727 145.003 22.461 144.945 22.426C144.889 22.3933 144.825 22.3537 144.753 22.307C144.68 22.2603 144.592 22.216 144.487 22.174C144.384 22.1297 144.261 22.0923 144.119 22.062C143.979 22.0317 143.812 22.0165 143.619 22.0165C143.336 22.0165 143.081 22.0632 142.852 22.1565C142.623 22.2475 142.429 22.3793 142.268 22.552C142.107 22.7223 141.983 22.93 141.897 23.175C141.81 23.4177 141.767 23.6907 141.767 23.994C141.767 24.309 141.811 24.5913 141.9 24.841C141.991 25.0883 142.119 25.2995 142.285 25.4745C142.453 25.6472 142.656 25.779 142.894 25.87C143.132 25.961 143.399 26.0065 143.696 26.0065C143.929 26.0065 144.135 25.9808 144.315 25.9295C144.497 25.8758 144.674 25.8023 144.847 25.709V24.6065H144.067C144.022 24.6065 143.986 24.5937 143.958 24.568C143.932 24.5423 143.92 24.5108 143.92 24.4735V24.0885H145.46ZM100.304 33.638L99.5165 31.5975C99.4932 31.5368 99.4687 31.4668 99.443 31.3875C99.4173 31.3058 99.3928 31.2195 99.3695 31.1285C99.3205 31.3175 99.2703 31.475 99.219 31.601L98.4315 33.638H100.304ZM101.718 35.5H101.193C101.132 35.5 101.083 35.4848 101.046 35.4545C101.009 35.4242 100.981 35.3857 100.962 35.339L100.493 34.128H98.2425L97.7735 35.339C97.7595 35.381 97.7327 35.4183 97.693 35.451C97.6533 35.4837 97.6043 35.5 97.546 35.5H97.021L99.0265 30.4845H99.7125L101.718 35.5ZM107.322 33.0885V35.0135C107.07 35.1955 106.8 35.332 106.513 35.423C106.229 35.5117 105.916 35.556 105.575 35.556C105.172 35.556 104.808 35.4942 104.483 35.3705C104.159 35.2445 103.881 35.0695 103.65 34.8455C103.422 34.6192 103.246 34.3485 103.122 34.0335C102.998 33.7185 102.936 33.372 102.936 32.994C102.936 32.6113 102.996 32.2625 103.115 31.9475C103.236 31.6325 103.408 31.363 103.629 31.139C103.851 30.9127 104.121 30.7377 104.438 30.614C104.755 30.4903 105.11 30.4285 105.502 30.4285C105.7 30.4285 105.885 30.4437 106.055 30.474C106.225 30.502 106.383 30.544 106.527 30.6C106.672 30.6537 106.806 30.7202 106.93 30.7995C107.054 30.8765 107.169 30.964 107.276 31.062L107.084 31.37C107.054 31.4167 107.014 31.447 106.965 31.461C106.918 31.4727 106.866 31.461 106.807 31.426C106.751 31.3933 106.687 31.3537 106.615 31.307C106.543 31.2603 106.454 31.216 106.349 31.174C106.246 31.1297 106.124 31.0923 105.981 31.062C105.841 31.0317 105.675 31.0165 105.481 31.0165C105.199 31.0165 104.943 31.0632 104.714 31.1565C104.486 31.2475 104.291 31.3793 104.13 31.552C103.969 31.7223 103.845 31.93 103.759 32.175C103.673 32.4177 103.629 32.6907 103.629 32.994C103.629 33.309 103.674 33.5913 103.762 33.841C103.853 34.0883 103.982 34.2995 104.147 34.4745C104.315 34.6472 104.518 34.779 104.756 34.87C104.994 34.961 105.262 35.0065 105.558 35.0065C105.791 35.0065 105.998 34.9808 106.177 34.9295C106.359 34.8758 106.537 34.8023 106.709 34.709V33.6065H105.929C105.885 33.6065 105.848 33.5937 105.82 33.568C105.795 33.5423 105.782 33.5108 105.782 33.4735V33.0885H107.322ZM112.455 34.947L112.452 35.5H109.361V30.4845H112.452V31.0375H110.04V32.7035H111.993V33.2355H110.04V34.947H112.455ZM118.465 30.4845V35.5H118.125C118.072 35.5 118.026 35.4907 117.989 35.472C117.954 35.4533 117.919 35.4218 117.884 35.3775L114.982 31.5975C114.987 31.6558 114.99 31.713 114.993 31.769C114.995 31.825 114.996 31.8775 114.996 31.9265V35.5H114.401V30.4845H114.751C114.782 30.4845 114.807 30.4868 114.828 30.4915C114.849 30.4938 114.868 30.4997 114.884 30.509C114.901 30.516 114.917 30.5277 114.933 30.544C114.95 30.558 114.967 30.5767 114.986 30.6L117.887 34.3765C117.883 34.3158 117.878 34.2575 117.873 34.2015C117.871 34.1432 117.87 34.0883 117.87 34.037V30.4845H118.465ZM124.268 34.464C124.305 34.464 124.338 34.4792 124.366 34.5095L124.635 34.8C124.43 35.038 124.18 35.2235 123.886 35.3565C123.595 35.4895 123.241 35.556 122.826 35.556C122.467 35.556 122.14 35.4942 121.846 35.3705C121.552 35.2445 121.301 35.0695 121.093 34.8455C120.886 34.6192 120.725 34.3485 120.61 34.0335C120.496 33.7185 120.439 33.372 120.439 32.994C120.439 32.616 120.498 32.2695 120.617 31.9545C120.736 31.6395 120.903 31.3688 121.118 31.1425C121.335 30.9162 121.594 30.7412 121.895 30.6175C122.196 30.4915 122.528 30.4285 122.892 30.4285C123.249 30.4285 123.564 30.4857 123.837 30.6C124.11 30.7143 124.351 30.8695 124.558 31.0655L124.334 31.377C124.32 31.4003 124.302 31.4202 124.278 31.4365C124.257 31.4505 124.228 31.4575 124.191 31.4575C124.149 31.4575 124.098 31.4353 124.037 31.391C123.976 31.3443 123.897 31.293 123.799 31.237C123.701 31.181 123.578 31.1308 123.431 31.0865C123.284 31.0398 123.104 31.0165 122.889 31.0165C122.63 31.0165 122.393 31.062 122.178 31.153C121.964 31.2417 121.778 31.3712 121.622 31.5415C121.468 31.7118 121.348 31.9195 121.261 32.1645C121.175 32.4095 121.132 32.686 121.132 32.994C121.132 33.3067 121.176 33.5855 121.265 33.8305C121.356 34.0755 121.478 34.2832 121.632 34.4535C121.789 34.6215 121.972 34.7498 122.182 34.8385C122.394 34.9272 122.623 34.9715 122.868 34.9715C123.017 34.9715 123.151 34.9633 123.27 34.947C123.392 34.9283 123.503 34.9003 123.603 34.863C123.706 34.8257 123.8 34.779 123.886 34.723C123.975 34.6647 124.063 34.5958 124.149 34.5165C124.189 34.4815 124.228 34.464 124.268 34.464ZM128.306 33.5015V35.5H127.627V33.5015L125.789 30.4845H126.384C126.445 30.4845 126.493 30.4997 126.528 30.53C126.563 30.558 126.593 30.5953 126.619 30.642L127.767 32.5915C127.809 32.6732 127.847 32.7502 127.882 32.8225C127.917 32.8925 127.948 32.9637 127.973 33.036C127.999 32.9637 128.028 32.8925 128.061 32.8225C128.093 32.7502 128.13 32.6732 128.169 32.5915L129.314 30.642C129.335 30.6023 129.364 30.5662 129.401 30.5335C129.439 30.5008 129.486 30.4845 129.545 30.4845H130.143L128.306 33.5015Z" fill="white"/>
<path d="M89.4 10.5V37.5" stroke="white" stroke-width="0.8"/>
</g>
<defs>
<clipPath id="clip0_2_1235">
<rect width="146" height="48" fill="white" transform="translate(0 0.5)"/>
</clipPath>
</defs>
</svg>
